<svg height="24" viewBox="0 0 24 24" width="24" xmlns="http://www.w3.org/2000/svg"><g fill="none"><path d="m0 0h24v24h-24z"/><path d="m9.79289 12.7929c.39051-.3905 1.02371-.3905 1.41421 0 .3604615.3604615.3881893.9277207.0831834 1.3199973l-.0831834.0942027-4.79289 4.7929h2.58579c.55229 0 1 .4477 1 1 0 .51285-.38603566.9355092-.8833779.9932725l-.1166221.0067275h-5c-.51283143 0-.93550653-.386027-.9932722-.8833761l-.0067278-.1166239v-5c0-.5523.44772-1 1-1 .51283143 0 .93550653.386027.9932722.8833761l.0067278.1166239v2.5858zm10.20711-9.7929c.51285 0 .9355092.38604429.9932725.88337975l.0067275.11662025v5c0 .55228-.4477 1-1 1-.51285 0-.9355092-.38604429-.9932725-.88337975l-.0067275-.11662025v-2.58579l-4.7929 4.79289c-.3905.3905-1.0237.3905-1.4142 0-.3604615-.3604615-.3881893-.9277207-.0831834-1.32000513l.0831834-.09420487 4.7929-4.79289h-2.5858c-.5523 0-1-.44771-1-1 0-.51283143.386027-.93550653.8833761-.9932722l.1166239-.0067278z" fill="#09244b"/></g></svg>