<svg height="24" viewBox="0 0 24 24" width="24" xmlns="http://www.w3.org/2000/svg"><g fill="none"><path d="m0 0h24v24h-24z"/><path d="m11 12c.51285 0 .9355092.386027.9932725.8833761l.0067275.1166239v5c0 .5523-.4477 1-1 1-.51285 0-.9355092-.386027-.9932725-.8833761l-.0067275-.1166239v-2.5858l-5.29289 5.2929c-.39053.3905-1.02369.3905-1.41422 0-.36048-.3604615-.38820923-.9277207-.08318769-1.3199973l.08318769-.0942027 5.2929-5.2929h-2.58579c-.55229 0-1-.4477-1-1 0-.51285.38603566-.9355092.8833779-.9932725l.1166221-.0067275zm8.2929-8.70711c.3905-.39052 1.0237-.39052 1.4142 0 .3604615.36048923.3881893.92771645.0831834 1.32001152l-.0831834.09420848-5.2929 5.29289h2.5858c.5523 0 1 .4477 1 1 0 .51285-.386027.9355092-.8833761.9932725l-.1166239.0067275h-5c-.51285 0-.9355092-.386027-.9932725-.8833761l-.0067275-.1166239v-5c0-.55228.4477-1 1-1 .51285 0 .9355092.38604429.9932725.88337975l.0067275.11662025v2.58579z" fill="#fff"/></g></svg>